<?xml version="1.0" encoding="UTF-8" standalone="no"?>
<!DOCTYPE svg PUBLIC "-//W3C//DTD SVG 1.1//EN" "http://www.w3.org/Graphics/SVG/1.1/DTD/svg11.dtd" >
<svg width="20px" height="21px" viewBox="0 0 20 21" version="1.1" xmlns="http://www.w3.org/2000/svg" xmlns:xlink="http://www.w3.org/1999/xlink">
    <!-- Generator: Sketch 3.7 (28169) - http://www.bohemiancoding.com/sketch -->
    <title>calendar</title>
    <desc>Created with Sketch.</desc>
    <defs></defs>
    <g id="Editorial" stroke="none" stroke-width="1" fill="none" fill-rule="evenodd">
        <g id="Artboard-33" transform="translate(-62.000000, -21.000000)" fill="#000000">
            <g id="calendar" transform="translate(62.000000, 21.000000)">
                <path d="M0,6.08695652 L0,20 C0,20.4347826 0.434782609,20.8695652 0.869565217,20.8695652 L19.1304348,20.8695652 C19.5652174,20.8695652 20,20.4347826 20,20 L20,6.08695652 L0,6.08695652 L0,6.08695652 Z M4.34782609,19.1304348 L1.73913043,19.1304348 L1.73913043,16.5217391 L4.34782609,16.5217391 L4.34782609,19.1304348 L4.34782609,19.1304348 Z M4.34782609,15.6521739 L1.73913043,15.6521739 L1.73913043,13.0434783 L4.34782609,13.0434783 L4.34782609,15.6521739 L4.34782609,15.6521739 Z M4.34782609,12.173913 L1.73913043,12.173913 L1.73913043,9.56521739 L4.34782609,9.56521739 L4.34782609,12.173913 L4.34782609,12.173913 Z M7.82608696,19.1304348 L5.2173913,19.1304348 L5.2173913,16.5217391 L7.82608696,16.5217391 L7.82608696,19.1304348 L7.82608696,19.1304348 Z M7.82608696,15.6521739 L5.2173913,15.6521739 L5.2173913,13.0434783 L7.82608696,13.0434783 L7.82608696,15.6521739 L7.82608696,15.6521739 Z M7.82608696,12.173913 L5.2173913,12.173913 L5.2173913,9.56521739 L7.82608696,9.56521739 L7.82608696,12.173913 L7.82608696,12.173913 Z M11.3043478,19.1304348 L8.69565217,19.1304348 L8.69565217,16.5217391 L11.3043478,16.5217391 L11.3043478,19.1304348 L11.3043478,19.1304348 Z M11.3043478,15.6521739 L8.69565217,15.6521739 L8.69565217,13.0434783 L11.3043478,13.0434783 L11.3043478,15.6521739 L11.3043478,15.6521739 Z M11.3043478,12.173913 L8.69565217,12.173913 L8.69565217,9.56521739 L11.3043478,9.56521739 L11.3043478,12.173913 L11.3043478,12.173913 Z M14.7826087,19.1304348 L12.173913,19.1304348 L12.173913,16.5217391 L14.7826087,16.5217391 L14.7826087,19.1304348 L14.7826087,19.1304348 Z M14.7826087,15.6521739 L12.173913,15.6521739 L12.173913,13.0434783 L14.7826087,13.0434783 L14.7826087,15.6521739 L14.7826087,15.6521739 Z M14.7826087,12.173913 L12.173913,12.173913 L12.173913,9.56521739 L14.7826087,9.56521739 L14.7826087,12.173913 L14.7826087,12.173913 Z M18.2608696,19.1304348 L15.6521739,19.1304348 L15.6521739,16.5217391 L18.2608696,16.5217391 L18.2608696,19.1304348 L18.2608696,19.1304348 Z M18.2608696,15.6521739 L15.6521739,15.6521739 L15.6521739,13.0434783 L18.2608696,13.0434783 L18.2608696,15.6521739 L18.2608696,15.6521739 Z M18.2608696,12.173913 L15.6521739,12.173913 L15.6521739,9.56521739 L18.2608696,9.56521739 L18.2608696,12.173913 L18.2608696,12.173913 Z M20,2.60869565 L20,5.2173913 L0,5.2173913 L0,2.60869565 C0,2.17391304 0.434782609,1.73913043 0.869565217,1.73913043 L2.60869565,1.73913043 L2.60869565,0.869565217 C2.60869565,0.434782609 3.04347826,0 3.47826087,0 L4.34782609,0 C4.7826087,0 5.2173913,0.434782609 5.2173913,0.869565217 L5.2173913,1.73913043 L14.7826087,1.73913043 L14.7826087,0.869565217 C14.7826087,0.434782609 15.2173913,0 15.6521739,0 L16.5217391,0 C16.9565217,0 17.3913043,0.434782609 17.3913043,0.869565217 L17.3913043,1.73913043 L19.1304348,1.73913043 C19.5652174,1.73913043 20,2.17391304 20,2.60869565 L20,2.60869565 Z" id="Shape"></path>
            </g>
        </g>
    </g>
</svg>
