<?xml version="1.0" encoding="UTF-8" standalone="no"?>
<svg width="20px" height="20px" viewBox="0 0 20 20" version="1.1" xmlns="http://www.w3.org/2000/svg" xmlns:xlink="http://www.w3.org/1999/xlink">
    <!-- Generator: Sketch 3.7 (28169) - http://www.bohemiancoding.com/sketch -->
    <title>clock_1_</title>
    <desc>Created with Sketch.</desc>
    <defs></defs>
    <g id="Editorial" stroke="none" stroke-width="1" fill="none" fill-rule="evenodd">
        <g id="Artboard-33" transform="translate(-19.000000, -22.000000)" fill="#000000">
            <g id="clock_1_" transform="translate(19.000000, 22.000000)">
                <g id="clock">
                    <path d="M10,0 C4.5,0 0,4.5 0,10 C0,15.5 4.5,20 10,20 C15.5,20 20,15.5 20,10 C20,4.5 15.5,0 10,0 L10,0 Z M14.3333333,6.25 C14.5,6.41666667 14.5,6.66666667 14.3333333,6.83333333 L11.5833333,9.58333333 C11.5833333,9.75 11.6666667,9.83333333 11.6666667,10 C11.6666667,10.9166667 10.9166667,11.6666667 10,11.6666667 C9.41666667,11.6666667 8.83333333,11.25 8.58333333,10.8333333 L6.25,10.8333333 C6,10.8333333 5.83333333,10.6666667 5.83333333,10.4166667 L5.83333333,9.58333333 C5.83333333,9.33333333 6,9.16666667 6.25,9.16666667 L8.58333333,9.16666667 C8.83333333,8.75 9.41666667,8.33333333 10,8.33333333 C10.1666667,8.33333333 10.3333333,8.33333333 10.5,8.41666667 L13.1666667,5.75 C13.3333333,5.58333333 13.5833333,5.58333333 13.75,5.75 L14.3333333,6.25 L14.3333333,6.25 Z M10,17.5 C5.83333333,17.5 2.5,14.1666667 2.5,10 C2.5,5.83333333 5.83333333,2.5 10,2.5 C14.1666667,2.5 17.5,5.83333333 17.5,10 C17.5,14.1666667 14.1666667,17.5 10,17.5 L10,17.5 Z" id="Shape"></path>
                </g>
            </g>
        </g>
    </g>
</svg>
